<?xml version="1.0" encoding="UTF-8" standalone="no"?>
<!DOCTYPE svg PUBLIC "-//W3C//DTD SVG 1.1//EN" "http://www.w3.org/Graphics/SVG/1.1/DTD/svg11.dtd">
<svg xmlns="http://www.w3.org/2000/svg" xmlns:xlink="http://www.w3.org/1999/xlink" version="1.1" width="1106.9722pt" height="110.694438pt" viewBox="0 0 1106.9722 110.694438">
<g enable-background="new">
<symbol id="font_0_11">
<path d="M .328 .39000003 C .36400003 .41500003 .391 .42900003 .41500003 .462 C .435 .49100004 .446 .52700009 .446 .563 C .446 .67800006 .345 .72200009 .22800002 .72200009 C .15800002 .72200009 .085 .69200006 .036000007 .63900008 C .029000007 .632 .017000005 .62100008 .017000005 .61200007 C .017000005 .59900006 .055000009 .55200007 .064 .55200007 C .07300001 .55200007 .085 .57500007 .093 .58500006 C .12600002 .62500008 .178 .64900007 .23000002 .64900007 C .285 .64900007 .322 .62700006 .322 .56000009 C .322 .495 .279 .43100003 .213 .424 C .18900001 .423 .14700002 .42700003 .143 .409 L .143 .371 C .143 .359 .14900002 .35500003 .16100002 .35500003 C .18100003 .35500003 .199 .357 .22 .357 C .33400003 .357 .351 .285 .351 .21400002 C .351 .18500002 .349 .15400002 .335 .128 C .314 .089 .272 .07700001 .23000002 .07700001 C .16100002 .07700001 .09700001 .103 .047000007 .15 C .038000004 .15600002 .030000002 .17100002 .020000004 .17100002 C .006000001 .17100002 0 .10800001 0 .10700001 C 0 .095 .028000005 .072000008 .045 .061000006 C .095000009 .024 .15400002 .0030000006 .21599999 0 L .229 0 C .342 0 .47700004 .037 .47700004 .21400002 C .47700004 .282 .45000003 .341 .37800003 .375 C .363 .382 .345 .389 .328 .39000003 Z "/>
</symbol>
<symbol id="font_0_10">
<path d="M .0069999995 .11800001 C .0019999967 .116000007 .0009999946 .11000001 .0009999946 .104 L .0009999946 .031000002 C .0009999946 .027 0 .023000002 0 .018000002 C 0 .004 .004999995 .001 .018 .001 L .087 .001 C .09200001 .001 .097 0 .102 0 C .11400001 0 .119 .0050000005 .119 .016 L .119 .10300001 C .119 .116000007 .11400001 .120000008 .104 .120000008 C .09900001 .120000008 .094 .119 .091000009 .119 L .032999994 .119 C .027999998 .119 .023000002 .120000008 .018 .120000008 C .013999999 .120000008 .009999998 .119 .0069999995 .11800001 Z "/>
</symbol>
<symbol id="font_0_e">
<path d="M .284 .59900006 L .284 .030000002 C .284 .011 .29500003 0 .315 0 L .377 0 C .40800003 0 .41000004 .017 .41000004 .034 L .41000004 .59900006 C .49 .59900006 .57 .595 .65000006 .595 L .662 .595 C .69100007 .595 .694 .61200007 .694 .628 L .694 .64800009 C .694 .6610001 .69200006 .68100008 .665 .68100008 L .053000004 .68100008 C .047000007 .68100008 .041 .68200007 .034 .68200007 C .012000002 .68200007 0 .67 0 .64900007 L 0 .62900009 C 0 .609 .0040000008 .59400007 .038000004 .59400007 C .047000007 .59400007 .057000005 .595 .06600001 .596 L .09700001 .596 C .107 .596 .11800001 .596 .12900001 .59700009 L .18100003 .59700009 C .215 .59800007 .25 .59900006 .284 .59900006 Z "/>
</symbol>
<symbol id="font_0_c">
<path d="M .12100001 .38300003 L .12100001 .68000009 C .12100001 .702 .11400001 .71500006 .083000008 .71500006 C .07200001 .71500006 .061000006 .71400007 .050000006 .71400007 C .044000009 .71400007 .038000004 .71500006 .032000007 .71500006 C .016000003 .71500006 0 .70600005 0 .68600007 L 0 .036000004 C 0 .020000002 .001000002 .007 .022 0 L .08700001 0 C .112 0 .12300001 .011 .12300001 .036000004 L .12300001 .24700001 C .12300001 .31400005 .157 .39600004 .24200002 .39600004 C .30900003 .39600004 .319 .35600005 .319 .31200005 L .319 .035000005 C .319 .012 .32700003 0 .35000003 0 L .40700004 0 C .42900003 0 .44300003 .010000001 .44300003 .034 C .44300003 .041000006 .44200004 .048000006 .44200004 .054000006 L .44200004 .293 C .44200004 .33100004 .44200004 .37100003 .423 .40500004 C .395 .45400004 .33400003 .46000005 .28500004 .46000005 C .21800003 .46000005 .16200002 .43200005 .12100001 .38300003 Z "/>
</symbol>
<symbol id="font_0_a">
<path d="M .118 .21700001 L .425 .21700001 C .45200003 .21700001 .46 .231 .46 .25100003 C .46 .366 .41200004 .474 .24200002 .474 C .177 .474 .10700001 .45900003 .060000007 .412 C .014000002 .366 0 .299 0 .23700002 C 0 .18200001 .011 .125 .046 .082 C .096 .018000002 .18100001 0 .25800003 0 C .315 0 .374 .012 .42600004 .036000004 C .43400003 .040000004 .451 .045 .453 .055000005 L .453 .059000005 C .453 .080000009 .45200003 .124000009 .441 .127 L .439 .127 C .43 .127 .42000003 .117000009 .414 .112 C .37100003 .08100001 .316 .064 .262 .064 C .194 .064 .118 .10000001 .118 .209 L .118 .21700001 M .119 .273 C .119 .347 .165 .41 .243 .41 C .33600004 .41 .347 .335 .35300002 .273 L .119 .273 Z "/>
</symbol>
<symbol id="font_0_3">
<path d="M .12100001 .60300007 L .12100001 .61300006 C .12100001 .64400008 .10100001 .64500007 .083000008 .64500007 L .036000007 .64500007 C .019000002 .64500007 0 .64100006 0 .615 L 0 .023999989 C .002000004 .0069999995 .016000003 0 .032000007 0 L .088 0 C .104 0 .12300001 .0019999892 .12300001 .029 L .12300001 .234 C .157 .20300001 .20300003 .185 .24800001 .185 C .31600005 .185 .39200003 .202 .43400003 .26 C .46800006 .305 .47700007 .367 .47700007 .421 C .47700007 .52400007 .44700004 .65400007 .28000004 .65400007 C .22400002 .65400007 .16600001 .638 .12100001 .60300007 M .35300005 .39900003 C .34600003 .328 .325 .24900002 .21800001 .24900002 C .18300002 .24900002 .12300001 .274 .12300001 .312 L .12300001 .536 C .127 .563 .189 .586 .22900002 .586 C .33200003 .586 .35400004 .49400003 .35400004 .418 C .35400004 .412 .35400004 .40500004 .35300005 .39900003 Z "/>
</symbol>
<symbol id="font_0_4">
<path d="M .119 .36300005 C .118 .37000004 .118 .37700004 .118 .38400004 L .118 .42400003 C .118 .45100004 .10100001 .45500005 .083000008 .45500005 L .031000004 .45500005 C .014000006 .45500005 0 .44600005 0 .42200003 C 0 .41600005 .001000002 .41100005 .001000002 .40600003 L .001000002 .037000006 C .001000002 .020000002 .003000006 0 .031000004 0 L .08700001 0 C .104 0 .12200001 .004 .12200001 .030000002 L .12200001 .192 C .12200001 .22600001 .12200001 .25800003 .13900002 .28800003 C .16800002 .33800004 .22300002 .36400003 .279 .36900003 L .286 .36900003 C .296 .36900003 .3 .37200005 .3 .38300003 L .3 .44300006 C .3 .45500005 .296 .46000005 .284 .46000005 C .22 .46000005 .14000002 .41200004 .119 .36300005 Z "/>
</symbol>
<symbol id="font_0_2">
<path d="M .232 .47500003 C .171 .46800003 .112 .46000005 .065 .416 C .015000001 .36900003 0 .298 0 .23200001 C 0 .12000001 .051000004 0 .25 0 C .37100003 0 .509 .038000004 .509 .23000002 C .509 .291 .49700005 .35500003 .45600004 .40300004 C .404 .46300004 .321 .47500003 .24600002 .47500003 L .232 .47500003 M .122999999 .20800002 L .122999999 .252 C .122999999 .32200004 .12900001 .411 .257 .411 C .289 .411 .323 .404 .347 .38300003 C .38500003 .34800003 .386 .29400004 .386 .24600002 L .386 .23900001 C .386 .16600001 .384 .069000009 .252 .069000009 C .216 .069000009 .178 .07800001 .154 .106000009 C .12900001 .135 .127 .172 .122999999 .20800002 Z "/>
</symbol>
<symbol id="font_0_8">
<path d="M .12300001 .049000004 C .156 .018000002 .202 0 .24700003 0 C .31700004 0 .39200003 .018000002 .43500007 .07700001 C .47000004 .124000009 .47700007 .185 .47700007 .24100001 C .47700007 .35 .43600006 .469 .27600003 .469 C .221 .469 .164 .453 .12100001 .419 L .12100001 .674 C .12100001 .68000009 .12200001 .68600007 .12200001 .69200006 C .12200001 .7120001 .11 .72300007 .089 .72300007 L .037 .72300007 C .018 .72300007 0 .7210001 0 .68900009 L 0 .031000004 C .0059999974 .012 .017000005 .009000001 .034 .009000001 L .08500001 .009000001 C .103 .009000001 .12300001 .009000001 .12300001 .039 L .12300001 .049000004 M .35300005 .20400001 C .348 .133 .32700003 .064 .21700002 .064 L .207 .064 C .175 .068 .12300001 .093 .12300001 .128 L .12300001 .354 C .128 .38300003 .193 .405 .23 .405 C .343 .405 .35400004 .317 .35400004 .246 L .35400004 .22500001 C .35400004 .21800001 .35400004 .21100001 .35300005 .20400001 Z "/>
</symbol>
<symbol id="font_0_7">
<path d="M .319 .277 C .199 .277 0 .262 0 .133 C 0 .054000006 .068 0 .146 0 C .206 0 .273 .012 .321 .050000006 L .321 .040000004 C .321 .009000001 .342 .009000001 .359 .009000001 L .409 .009000001 C .426 .009000001 .442 .015000001 .442 .040000004 L .442 .327 C .43400003 .449 .333 .474 .24400002 .474 C .18400002 .474 .12799999 .46400003 .072000008 .441 C .062 .435 .046000005 .433 .046000005 .42000003 C .046000005 .395 .047 .344 .061000006 .344 C .066 .344 .07 .347 .074 .35 C .11900001 .39000003 .171 .412 .23300001 .412 C .292 .412 .319 .38 .319 .31 L .319 .277 M .319 .22700002 L .319 .14700002 C .319 .086 .261 .064 .20900002 .064 C .17300001 .064 .11900001 .083000008 .11900001 .134 C .11900001 .21900001 .263 .223 .319 .22700002 Z "/>
</symbol>
<symbol id="font_0_d">
<path d="M .023999997 .45000006 C .008000001 .44700004 .0029999987 .43300004 .0029999987 .41800005 L .0029999987 .032 C .0029999987 .004 .020999998 0 .04 0 L .092 0 C .11900001 0 .124000009 .016 .124000009 .035000005 L .124000009 .42000006 C .124000009 .44200004 .11200001 .45100004 .091 .45100004 L .036 .45100004 C .031999999 .45100004 .027999998 .45100004 .023999997 .45000006 M .020999998 .70800009 C .0050000029 .70600005 0 .69000008 0 .67700007 L 0 .61300006 C 0 .591 .013999999 .58300009 .031000004 .58300009 L .093 .58300009 C .11100001 .58300009 .12600002 .58900007 .12600002 .61300006 L .12600002 .679 C .12600002 .70400008 .11000001 .70900008 .094000007 .70900008 L .034 .70900008 C .029 .70900008 .024999999 .70900008 .020999998 .70800009 Z "/>
</symbol>
<symbol id="font_0_f">
<path d="M .022 .71300008 C .0040000008 .71300008 .001000002 .69000008 .001000002 .67800006 L .001000002 .054000006 C .001000002 .048000006 0 .041000006 0 .034 C 0 .017 .008000001 .0019999999 .024000004 0 L .08400001 0 C .118 0 .12200001 .014 .12200001 .033000005 L .12200001 .66 C .12200001 .66600009 .12300001 .67200008 .12300001 .679 C .12300001 .69600006 .11700001 .7120001 .098000008 .71400007 L .037000009 .71400007 C .032000007 .71400007 .027000003 .71400007 .022 .71300008 Z "/>
</symbol>
<symbol id="font_0_6">
<path d="M .082 .46 L .031999999 .46 C .012999998 .46 0 .448 0 .42900003 C 0 .41 .012 .39900003 .03 .39900003 L .08 .39900003 L .08 .135 C .08 .07 .097 0 .18200001 0 C .23800002 0 .298 .011 .347 .037 C .35300002 .040000004 .361 .043 .361 .050000006 L .361 .053000004 C .361 .066 .352 .102000009 .34100003 .102000009 C .33200003 .102000009 .32 .091000009 .31 .08500001 C .291 .074 .266 .068 .24500002 .068 C .20600002 .068 .19900002 .105000007 .19900002 .157 L .19900002 .39900003 L .31 .39900003 C .329 .39900003 .344 .409 .344 .42900003 C .344 .45000003 .331 .46 .30900003 .46 L .19900002 .46 L .19900002 .55500009 C .19900002 .57900008 .19000001 .59000006 .16200002 .59000006 C .15500002 .59000006 .14700002 .58900007 .14000002 .58900007 C .13300002 .58900007 .12600002 .59000006 .11900001 .59000006 C .1 .59000006 .082 .58500006 .082 .55500009 L .082 .46 Z "/>
</symbol>
<symbol id="font_0_5">
<path d="M .16600001 .47500003 C .096 .46800003 .006000001 .45100004 .006000001 .337 C .006000001 .26000003 .073 .21400002 .142 .19900002 C .19500001 .18800001 .292 .186 .292 .128 C .292 .076000008 .23300001 .071 .2 .071 C .138 .071 .08500001 .09200001 .037000006 .136 C .033999999 .13900002 .028 .14400001 .023000002 .14400001 C .011 .14400001 .012000002 .124000009 .010000002 .11400001 C .008000001 .09600001 0 .076000008 0 .058000003 C 0 .048 .008000001 .046 .015999999 .041 C .074 .015000001 .13700001 0 .2 0 C .28100003 0 .38200004 .024 .38200004 .14800002 C .38200004 .21900001 .324 .27 .259 .289 C .22800002 .29700003 .19600001 .30100004 .165 .30600003 C .138 .312 .096 .32400004 .096 .358 L .096 .363 C .105000007 .40800003 .15100001 .41000004 .187 .41000004 C .24000001 .41000004 .286 .395 .32700003 .36400003 C .331 .36200003 .335 .358 .34 .358 C .354 .358 .361 .41900004 .361 .432 C .361 .446 .33200003 .45200003 .316 .45700003 C .278 .47000004 .23900002 .47500003 .199 .47500003 L .16600001 .47500003 Z "/>
</symbol>
<symbol id="font_0_b">
<path d="M .06300001 .23 C .024 .215 0 .179 0 .136 C 0 .010000005 .165 0 .254 0 C .352 0 .509 .010000005 .509 .141 C .509 .263 .39900003 .28800003 .25300003 .28800003 L .146 .28800003 C .119 .29000003 .097 .31300003 .095 .34000004 C .095 .35000003 .097 .358 .100999999 .367 C .139 .347 .186 .34500004 .22800002 .34500004 C .27600003 .34500004 .324 .352 .36400003 .37800003 C .405 .40500004 .425 .45400004 .425 .503 C .425 .53700008 .41500003 .572 .397 .59900006 C .40800003 .6010001 .42000003 .6010001 .432 .6010001 L .455 .6010001 C .47400005 .6010001 .495 .597 .514 .597 C .52000007 .597 .52500006 .6010001 .52500006 .60800006 C .52500006 .63600006 .519 .66400006 .50100007 .66400006 C .45600004 .66400006 .411 .65700009 .36900003 .64100006 C .36600004 .63900008 .36200003 .638 .358 .638 L .35500003 .638 C .347 .63900008 .338 .64500007 .33 .648 C .29700003 .661 .26000003 .66400006 .225 .66400006 C .141 .66400006 .028 .6470001 .021000002 .51600006 L .021000002 .50200006 C .021000002 .467 .030000002 .43400003 .051000004 .40600003 C .054 .402 .060000007 .397 .060000007 .39200003 C .060000007 .38300003 .045000007 .36400003 .040000004 .34800003 C .037000006 .337 .035 .32500003 .035 .31300003 C .035 .28300003 .045000007 .254 .06300001 .23 M .092999998 .128 C .09200001 .13100001 .09200001 .135 .09200001 .13800001 C .09200001 .17400001 .116 .19000001 .161 .19000001 L .20300001 .19000001 C .224 .19000001 .245 .19100002 .266 .19100002 L .27600003 .19100002 C .326 .19100002 .41000004 .18900001 .41700004 .13800001 L .41700004 .13300002 C .41700004 .097 .38000003 .07700001 .35000003 .067 C .319 .059 .286 .058 .254 .058 C .19500001 .058 .100999999 .06300001 .092999998 .128 M .138 .48000003 L .138 .508 C .138 .556 .141 .60600009 .227 .60600009 C .287 .60600009 .307 .573 .307 .503 C .307 .455 .30400003 .403 .22300002 .403 C .2 .403 .176 .407 .158 .42300005 C .143 .439 .14 .45900003 .138 .48000003 Z "/>
</symbol>
<symbol id="font_0_1">
<path d="M .120000008 .38000003 C .119 .38600005 .118 .39200003 .118 .39800004 C .118 .40600003 .119 .41400004 .119 .42100004 C .119 .43700005 .11400001 .45300005 .09500001 .45500005 L .022 .45500005 C .0060000049 .45100004 0 .43800003 0 .42200003 L 0 .031000002 C 0 .0019999999 .019000002 0 .036000007 0 L .091000009 0 C .12100001 0 .12300001 .019000002 .12300001 .036000004 L .12300001 .237 C .12300001 .293 .13300002 .37400005 .22 .39400003 C .22700003 .39500005 .23500002 .39600004 .243 .39600004 C .31300003 .39600004 .319 .35200004 .319 .30900003 L .319 .049000004 C .319 .043000007 .31800003 .037000006 .31800003 .031000002 C .31800003 .014 .32700003 0 .349 0 L .40700004 0 C .42900003 0 .44200004 .007 .44200004 .034 L .44200004 .30400003 C .44200004 .34400005 .44 .39000006 .411 .42100004 C .37700004 .45600004 .32900004 .46000005 .28300003 .46000005 L .27 .46000005 C .21400002 .45500005 .14500001 .42800004 .120000008 .38000003 Z "/>
</symbol>
<symbol id="font_0_9">
<path d="M .226 .474 C .21100001 .472 .19600001 .47100003 .18100001 .469 C .13700001 .461 .094 .444 .061000006 .41300003 C .015000001 .36900003 0 .302 0 .23900001 C 0 .178 .011 .11500001 .053000004 .068 C .102 .014 .179 0 .249 0 C .31200005 0 .37600006 .013 .43200005 .043 C .43800003 .046000005 .44 .050000006 .44 .056 C .44 .080000009 .43700005 .128 .426 .12900001 L .425 .12900001 C .41400004 .12900001 .39200003 .108 .37700004 .10000001 C .339 .078 .29500003 .068 .25200004 .068 C .139 .068 .12300001 .158 .12300001 .23300001 C .12300001 .313 .135 .40600003 .25200004 .40600003 C .30700005 .40600003 .34500004 .396 .39500005 .358 C .40000005 .354 .40600003 .347 .41300006 .347 C .42400003 .347 .42400003 .363 .425 .36900003 L .431 .405 C .43200005 .41 .43400003 .415 .43400003 .42000003 C .43400003 .44 .36 .463 .33100004 .468 C .30700005 .47300003 .283 .474 .259 .474 L .226 .474 Z "/>
</symbol>
<use xlink:href="#font_0_11" transform="matrix(39.850557,0,0,-39.850557,254.9131,69.87245)" fill="#c0c0c0"/>
<use xlink:href="#font_0_10" transform="matrix(39.850557,0,0,-39.850557,279.9303,69.19499)" fill="#c0c0c0"/>
<use xlink:href="#font_0_e" transform="matrix(39.850557,0,0,-39.850557,310.61546,69.15514)" fill="#c0c0c0"/>
<use xlink:href="#font_0_c" transform="matrix(39.850557,0,0,-39.850557,342.9438,69.15514)" fill="#c0c0c0"/>
<use xlink:href="#font_0_a" transform="matrix(39.850557,0,0,-39.850557,364.94288,69.513797)" fill="#c0c0c0"/>
<use xlink:href="#font_0_3" transform="matrix(39.850557,0,0,-39.850557,402.66188,76.88615)" fill="#c0c0c0"/>
<use xlink:href="#font_0_4" transform="matrix(39.850557,0,0,-39.850557,424.9611,69.15514)" fill="#c0c0c0"/>
<use xlink:href="#font_0_2" transform="matrix(39.850557,0,0,-39.850557,438.94804,69.55365)" fill="#c0c0c0"/>
<use xlink:href="#font_0_8" transform="matrix(39.850557,0,0,-39.850557,463.64649,69.513797)" fill="#c0c0c0"/>
<use xlink:href="#font_0_7" transform="matrix(39.850557,0,0,-39.850557,485.68544,69.513797)" fill="#c0c0c0"/>
<use xlink:href="#font_0_8" transform="matrix(39.850557,0,0,-39.850557,509.33125,69.513797)" fill="#c0c0c0"/>
<use xlink:href="#font_0_d" transform="matrix(39.850557,0,0,-39.850557,532.8845,69.15514)" fill="#c0c0c0"/>
<use xlink:href="#font_0_f" transform="matrix(39.850557,0,0,-39.850557,543.64108,69.15514)" fill="#c0c0c0"/>
<use xlink:href="#font_0_d" transform="matrix(39.850557,0,0,-39.850557,554.23837,69.15514)" fill="#c0c0c0"/>
<use xlink:href="#font_0_6" transform="matrix(39.850557,0,0,-39.850557,562.84298,69.513797)" fill="#c0c0c0"/>
<use xlink:href="#font_0_d" transform="matrix(39.850557,0,0,-39.850557,581.58877,69.15514)" fill="#c0c0c0"/>
<use xlink:href="#font_0_a" transform="matrix(39.850557,0,0,-39.850557,590.6715,69.513797)" fill="#c0c0c0"/>
<use xlink:href="#font_0_5" transform="matrix(39.850557,0,0,-39.850557,611.67739,69.55365)" fill="#c0c0c0"/>
<use xlink:href="#font_0_7" transform="matrix(39.850557,0,0,-39.850557,644.4099,69.513797)" fill="#c0c0c0"/>
<use xlink:href="#font_0_6" transform="matrix(39.850557,0,0,-39.850557,665.86398,69.513797)" fill="#c0c0c0"/>
<use xlink:href="#font_0_7" transform="matrix(39.850557,0,0,-39.850557,698.0951,69.513797)" fill="#c0c0c0"/>
<use xlink:href="#font_0_b" transform="matrix(39.850557,0,0,-39.850557,735.36019,77.28465)" fill="#c0c0c0"/>
<use xlink:href="#font_0_f" transform="matrix(39.850557,0,0,-39.850557,760.0187,69.15514)" fill="#c0c0c0"/>
<use xlink:href="#font_0_7" transform="matrix(39.850557,0,0,-39.850557,769.10159,69.513797)" fill="#c0c0c0"/>
<use xlink:href="#font_0_1" transform="matrix(39.850557,0,0,-39.850557,792.70748,69.15514)" fill="#c0c0c0"/>
<use xlink:href="#font_0_9" transform="matrix(39.850557,0,0,-39.850557,814.9458,69.513797)" fill="#c0c0c0"/>
<use xlink:href="#font_0_a" transform="matrix(39.850557,0,0,-39.850557,835.05758,69.513797)" fill="#c0c0c0"/>
</g>
</svg>
